# xmcd CD database file
#
# Track frame offsets:
#	150
#	10797
#	25217
#	41130
#	52745
#	82607
#	95982
#	108125
#	133320
#	152480
#	165370
#	184957
#	205380
#	219050
#	238620
#
# Disc length: 3372 seconds
#
# Revision: 3
# Processed by: cddbd v1.5.2PL0 Copyright (c) Steve Scherf et al.
# Submitted via: CDex 1.51
#
DISCID=b70d2a0f
DTITLE=Kim Robertson, Carlos Reyes, Michelle Sell / Harvest Moon
DYEAR=1993
DGENRE=Folk
TTITLE0=Kim Robertson / Butterfly Jig
TTITLE1=Carlos Reyes / My Sweet Colleen
TTITLE2=Michelle Sell / Three Sisters
TTITLE3=Kim Robertson / Boys Of Ballisodare
TTITLE4=Carlos Reyes / Waling's Lament
TTITLE5=Michelle Sell / Air On A G String
TTITLE6=Kim Robertson / Hewlett
TTITLE7=Carlos Reyes / Legend Of The Guarani
TTITLE8=Michelle Sell / Anitra's Waltz
TTITLE9=Kim Robertson / O'Carolan's Concerto
TTITLE10=Carlos Reyes / Suenos (dreams)
TTITLE11=Michelle Sell / Hand In Hand
TTITLE12=Kim Robertson / Lord Galloway's Lamentation
TTITLE13=Carlos Reyes / The Promenade
TTITLE14=Michelle Sell / Arabesque
EXTD= YEAR: 1993
EXTT0=
EXTT1=
EXTT2=
EXTT3=
EXTT4=
EXTT5=
EXTT6=
EXTT7=
EXTT8=
EXTT9=
EXTT10=
EXTT11=
EXTT12=
EXTT13=
EXTT14=
PLAYORDER=
.
